<svg xmlns="http://www.w3.org/2000/svg" version="1.1" xmlns:xlink="http://www.w3.org/1999/xlink" xmlns:svgjs="http://svgjs.dev/svgjs" width="32" height="32"><svg width="32" height="32" viewBox="0 0 32 32" fill="none" xmlns="http://www.w3.org/2000/svg">
  <!-- 背景圆形 -->
  <circle cx="16" cy="16" r="16" fill="#F8FAFC"></circle>
  
  <!-- 花体字 "L" -->
  <path d="M10 8 
       C10 8, 10 18, 10 20
       C10 22, 11 23, 13 23.5
       C15 24, 18 24, 22 24
       C22.5 24, 23 23.8, 23 23
       C23 22.2, 22.5 22, 22 22
       C18 22, 15 22, 13 21.5
       C11 21, 12 20, 12 18
       C12 16, 12 8, 12 8
       C12 8, 12 7.5, 11 7.5
       C10 7.5, 10 8, 10 8 Z" stroke="#007AFF" stroke-width="1.5" fill="#007AFF" stroke-linecap="round" stroke-linejoin="round"></path>
  
  <!-- 装饰性的弧线 -->
  <path d="M13 23.5 
       C15 24, 18 24, 22 23.8
       C22.5 23.8, 23 23.5, 23.2 23
       C23.4 22.5, 23.2 22, 22.8 21.8" stroke="#007AFF" stroke-width="1" fill="none" stroke-linecap="round" opacity="0.6"></path>
</svg><style>@media (prefers-color-scheme: light) { :root { filter: none; } }
@media (prefers-color-scheme: dark) { :root { filter: none; } }
</style></svg>